<svg xmlns="http://www.w3.org/2000/svg" viewBox="0 0 191.87 228.71"><defs><style>.cls-1{fill:#262828;}</style></defs><title>b-detalle2</title><g id="Layer_2" data-name="Layer 2"><g id="Layer_1-2" data-name="Layer 1"><path class="cls-1" d="M173.79,32.31c-2.58,0-4.92,2.34-4.66,4.78-.25,2.44,2.08,4.73,4.66,4.78A4.87,4.87,0,0,0,178.48,37,5,5,0,0,0,173.79,32.31Z"/><path class="cls-1" d="M173.79,47.74c-2.58.05-4.91,2.34-4.66,4.78-.25,2.43,2.09,4.72,4.67,4.77a4.87,4.87,0,0,0,4.68-4.72A5,5,0,0,0,173.79,47.74Z"/><path class="cls-1" d="M173.85,63.17c-2.59,0-5,2.32-4.72,4.72-.27,2.48,2,4.74,4.61,4.83A4.86,4.86,0,0,0,178.48,68,5,5,0,0,0,173.85,63.17Z"/><path class="cls-1" d="M173.79,78.6c-2.58.05-4.92,2.34-4.66,4.78-.25,2.43,2.09,4.73,4.67,4.77a4.87,4.87,0,0,0,4.68-4.72A5,5,0,0,0,173.79,78.6Z"/><path class="cls-1" d="M173.77,94c-2.58.07-4.9,2.35-4.63,4.81-.24,2.42,2.11,4.72,4.7,4.75a4.87,4.87,0,0,0,4.65-4.74A5,5,0,0,0,173.77,94Z"/><path class="cls-1" d="M173.76,109.46a4.75,4.75,0,0,0-4.62,4.71c-.28,2.58,2.16,4.84,4.71,4.86a4.87,4.87,0,0,0,4.64-4.75A5,5,0,0,0,173.76,109.46Z"/><path class="cls-1" d="M173.84,124.9c-2.59,0-5,2.32-4.71,4.73-.27,2.47,2,4.74,4.62,4.82a4.87,4.87,0,0,0,4.73-4.79A5,5,0,0,0,173.84,124.9Z"/><path class="cls-1" d="M173.84,140.33c-2.59,0-5,2.32-4.71,4.73-.27,2.47,2,4.74,4.62,4.82a4.86,4.86,0,0,0,4.73-4.78A5,5,0,0,0,173.84,140.33Z"/><path class="cls-1" d="M173.84,155.76c-2.59,0-5,2.32-4.71,4.73-.27,2.47,2,4.74,4.62,4.82a4.86,4.86,0,0,0,4.73-4.78A5,5,0,0,0,173.84,155.76Z"/><path class="cls-1" d="M173.82,171.19c-2.59,0-4.94,2.33-4.69,4.75-.27,2.45,2.06,4.73,4.64,4.8a4.87,4.87,0,0,0,4.71-4.8A5,5,0,0,0,173.82,171.19Z"/><path class="cls-1" d="M173.78,186.62c-2.58.06-4.91,2.35-4.65,4.79-.25,2.43,2.1,4.72,4.68,4.76a4.87,4.87,0,0,0,4.66-4.73A5,5,0,0,0,173.78,186.62Z"/><path class="cls-1" d="M173.84,202.05c-2.59,0-4.95,2.33-4.71,4.74a4.75,4.75,0,0,0,4.63,4.83,4.91,4.91,0,0,0,4.72-4.8A5,5,0,0,0,173.84,202.05Z"/><path class="cls-1" d="M173.8,227a4.87,4.87,0,0,0,4.68-4.83,5,5,0,0,0-4.68-4.72c-2.58,0-4.92,2.34-4.66,4.77C168.88,224.7,171.21,227,173.8,227Z"/><path class="cls-1" d="M173.87,1.45c-2.59,0-5,2.31-4.74,4.71-.28,2.49,2,4.75,4.59,4.84a4.86,4.86,0,0,0,4.75-4.76A5,5,0,0,0,173.87,1.45Z"/><path class="cls-1" d="M173.81,16.88c-2.59,0-4.93,2.33-4.68,4.77-.26,2.44,2.07,4.73,4.66,4.79a4.87,4.87,0,0,0,4.69-4.82A5,5,0,0,0,173.81,16.88Z"/><path class="cls-1" d="M189.23,18.81a2.92,2.92,0,0,0-3,2.84,2.86,2.86,0,0,0,2.94,2.82,2.71,2.71,0,0,0,2.66-2.8A2.84,2.84,0,0,0,189.23,18.81Z"/><path class="cls-1" d="M191.86,6.33a2.85,2.85,0,0,0-2.54-2.94,2.81,2.81,0,0,0-3,2.74,2.78,2.78,0,1,0,5.56.21Z"/><path class="cls-1" d="M186.3,222.16a2.78,2.78,0,1,0,5.56.2,2.86,2.86,0,0,0-2.54-2.94A2.81,2.81,0,0,0,186.3,222.16Z"/><path class="cls-1" d="M189.31,204a2.83,2.83,0,1,0,2.55,2.94A2.86,2.86,0,0,0,189.31,204Z"/><path class="cls-1" d="M189.11,194.21a2.78,2.78,0,0,0,2.75-2.71,2.85,2.85,0,0,0-2.54-2.95,2.83,2.83,0,1,0-.21,5.65Z"/><path class="cls-1" d="M189.22,173.13a2.92,2.92,0,0,0-3,2.84,2.86,2.86,0,0,0,2.94,2.82,2.71,2.71,0,0,0,2.66-2.8A2.84,2.84,0,0,0,189.22,173.13Z"/><path class="cls-1" d="M189.22,157.69a2.92,2.92,0,0,0-3,2.84,2.86,2.86,0,0,0,2.94,2.81,2.71,2.71,0,0,0,2.66-2.8A2.84,2.84,0,0,0,189.22,157.69Z"/><path class="cls-1" d="M191.86,145.18a2.61,2.61,0,0,0-2.56-2.89,2.8,2.8,0,0,0-3,2.74,2.93,2.93,0,0,0,2.88,2.89A2.74,2.74,0,0,0,191.86,145.18Z"/><path class="cls-1" d="M189.24,126.83a2.83,2.83,0,1,0,0,5.66,2.77,2.77,0,0,0,2.68-2.8A2.85,2.85,0,0,0,189.24,126.83Z"/><path class="cls-1" d="M189.14,117.05a2.78,2.78,0,0,0,2.72-2.73,2.86,2.86,0,0,0-2.57-2.92,2.83,2.83,0,1,0-.16,5.65Z"/><path class="cls-1" d="M189.11,101.63a2.79,2.79,0,0,0,2.75-2.71A2.85,2.85,0,0,0,189.33,96a2.83,2.83,0,1,0-.22,5.65Z"/><path class="cls-1" d="M191.86,83.47a2.86,2.86,0,0,0-2.55-2.93,2.83,2.83,0,1,0,2.55,2.93Z"/><path class="cls-1" d="M189.23,65.11a2.92,2.92,0,0,0-3,2.83,2.86,2.86,0,0,0,2.94,2.82,2.71,2.71,0,0,0,2.66-2.8A2.84,2.84,0,0,0,189.23,65.11Z"/><path class="cls-1" d="M186.3,52.43a2.78,2.78,0,1,0,5.57.18,2.86,2.86,0,0,0-2.55-2.93A2.81,2.81,0,0,0,186.3,52.43Z"/><path class="cls-1" d="M189.35,34.25a2.83,2.83,0,1,0-.26,5.65,2.78,2.78,0,0,0,2.77-2.69A2.84,2.84,0,0,0,189.35,34.25Z"/><path class="cls-1" d="M0,0Q0,114.35,0,228.71H145.36a3.59,3.59,0,0,1,.79-1.54c.91-1,1.84-1.91,2.81-2.82a2.74,2.74,0,0,1,4.15,0l2.64,2.64a3.81,3.81,0,0,0,5.24.58,8.12,8.12,0,0,0,2.8-3.23c1.79-3.92-2.21-8.67-6.2-8.24a2,2,0,0,0-1.21.72l-3.24,3.24a2.66,2.66,0,0,1-4,.26,33.59,33.59,0,0,1-3.24-3.24,4.59,4.59,0,0,1,.19-5.37c.88-.94,1.79-1.84,2.73-2.73a2.78,2.78,0,0,1,4.32,0l2.64,2.64a3.83,3.83,0,0,0,5.26.44,8.45,8.45,0,0,0,2.71-3.16c1.79-3.91-2.19-8.68-6.18-8.25a2,2,0,0,0-1.21.71l-3.33,3.32a2.63,2.63,0,0,1-3.87.19A33.34,33.34,0,0,1,146,201.7a4.6,4.6,0,0,1,.17-5.38c.91-1,1.85-1.91,2.81-2.81a2.76,2.76,0,0,1,4.23.08l2.64,2.64a3.84,3.84,0,0,0,5.25.46,8.45,8.45,0,0,0,2.71-3.15c1.8-3.91-2.17-8.69-6.16-8.27a2,2,0,0,0-1.21.71l-3.33,3.32a2.68,2.68,0,0,1-4,.13,38.09,38.09,0,0,1-3.15-3.15A4.61,4.61,0,0,1,146,181c.95-1,1.95-2,3-3a2.73,2.73,0,0,1,4.14.15l2.65,2.64a3.84,3.84,0,0,0,5.25.47,8.47,8.47,0,0,0,2.72-3.14c1.81-3.91-2.16-8.69-6.15-8.28a2,2,0,0,0-1.22.7l-3.33,3.32a2.67,2.67,0,0,1-4,.15,25.25,25.25,0,0,1-3.14-3.16,3.92,3.92,0,0,1-.35-4.54,10.48,10.48,0,0,1,4.86-4.48,1.91,1.91,0,0,1,2.42.62c.89,1,1.92,1.95,2.88,2.92a3.83,3.83,0,0,0,5.25.49,8.1,8.1,0,0,0,2.81-3.37c1.61-3.92-2.4-8.52-6.34-8.07a1.92,1.92,0,0,0-1.1.69l-3.33,3.32a2.67,2.67,0,0,1-4,.17,37.65,37.65,0,0,1-3.16-3.15,4.61,4.61,0,0,1,.13-5.38c.93-1,1.9-2,2.9-2.89a2.72,2.72,0,0,1,4.14.11l2.64,2.64a3.83,3.83,0,0,0,5.25.5,8.1,8.1,0,0,0,2.82-3.36c1.62-3.91-2.38-8.53-6.32-8.08a1.9,1.9,0,0,0-1.11.68L153.1,143a2.67,2.67,0,0,1-4,.18A25.55,25.55,0,0,1,146,140a3.92,3.92,0,0,1-.37-4.54,10.7,10.7,0,0,1,4.73-4.45,2,2,0,0,1,2.63.63c.86,1,1.86,1.89,2.79,2.83A3.83,3.83,0,0,0,161,135a7.85,7.85,0,0,0,2.87-3.47c1.5-3.89-2.44-8.42-6.35-8a1.87,1.87,0,0,0-1.11.67l-3.33,3.32a2.66,2.66,0,0,1-4,.2,33,33,0,0,1-3.23-3.24,4.6,4.6,0,0,1,.25-5.37c.86-.91,1.74-1.78,2.64-2.64,1.49-1.44,3-1.43,4.41,0l2.56,2.56a3.83,3.83,0,0,0,5.25.54,7.9,7.9,0,0,0,2.88-3.46c1.51-3.87-2.41-8.42-6.33-8a1.86,1.86,0,0,0-1.11.66l-3.33,3.32a2.64,2.64,0,0,1-4,.21,33.75,33.75,0,0,1-3.23-3.24,4.61,4.61,0,0,1,.15-5.29q1.39-1.5,2.9-2.9a2.73,2.73,0,0,1,4.15.06l2.64,2.64a3.82,3.82,0,0,0,5.25.55,8.12,8.12,0,0,0,2.83-3.35c1.65-3.86-2.3-8.55-6.27-8.11a1.87,1.87,0,0,0-1.12.65l-3.33,3.32a2.66,2.66,0,0,1-4,.23,33.54,33.54,0,0,1-3.24-3.24,4.59,4.59,0,0,1,.22-5.37c.91-1,1.85-1.91,2.82-2.81a2.73,2.73,0,0,1,4.15,0l2.73,2.73a3.84,3.84,0,0,0,5.26.41,8.45,8.45,0,0,0,2.74-3.28c1.66-3.85-2.28-8.55-6.25-8.12a2,2,0,0,0-1.21.72l-3.24,3.24a2.66,2.66,0,0,1-4,.25,33.58,33.58,0,0,1-3.24-3.24,4.59,4.59,0,0,1,.2-5.38c.88-.94,1.79-1.84,2.73-2.73a2.77,2.77,0,0,1,4.32,0l2.64,2.64a3.83,3.83,0,0,0,5.26.43,8.52,8.52,0,0,0,2.7-3.16c1.79-3.92-2.21-8.67-6.19-8.25a2,2,0,0,0-1.21.72l-3.24,3.24a2.72,2.72,0,0,1-4.14.11c-1-.92-2-1.9-2.9-2.9a4.57,4.57,0,0,1,0-5.56c.91-1,1.84-1.91,2.81-2.81a2.75,2.75,0,0,1,4.23.1l2.64,2.64a3.84,3.84,0,0,0,5.25.45,8.45,8.45,0,0,0,2.71-3.15c1.8-3.91-2.18-8.68-6.17-8.26a2,2,0,0,0-1.21.71l-3.33,3.32a2.68,2.68,0,0,1-4,.12A36.54,36.54,0,0,1,146,47.39a4.6,4.6,0,0,1,.17-5.38q1.36-1.45,2.81-2.81a2.75,2.75,0,0,1,4.23.08l2.64,2.64a3.84,3.84,0,0,0,5.25.46,8.44,8.44,0,0,0,2.71-3.15c1.8-3.91-2.17-8.69-6.16-8.27a2,2,0,0,0-1.21.7L153.08,35a2.67,2.67,0,0,1-4,.14A25.09,25.09,0,0,1,146,32a3.92,3.92,0,0,1-.34-4.54A10.69,10.69,0,0,1,150.39,23a1.94,1.94,0,0,1,2.54.58c.88,1,1.91,2,2.88,2.92a3.83,3.83,0,0,0,5.25.48,8.44,8.44,0,0,0,2.72-3.14c1.81-3.9-2.15-8.7-6.14-8.28a2,2,0,0,0-1.22.69l-3.33,3.32a2.67,2.67,0,0,1-4,.15A25.13,25.13,0,0,1,146,16.54a3.91,3.91,0,0,1-.35-4.54,10.47,10.47,0,0,1,4.85-4.48,1.91,1.91,0,0,1,2.43.61c.89,1,1.92,1.95,2.88,2.92a3.83,3.83,0,0,0,5.25.49,8.13,8.13,0,0,0,2.81-3.37c1.62-3.92-2.39-8.52-6.33-8.07a2,2,0,0,0-1.1.68L153.1,4.11a2.67,2.67,0,0,1-4,.17A25.84,25.84,0,0,1,146,1.12,4.3,4.3,0,0,1,145.35,0H0ZM135.7,8.69A5.3,5.3,0,0,1,141.09,14c-.26,3.16-2,5.12-5.37,5.16a4.85,4.85,0,0,1-5-5.26A5,5,0,0,1,135.7,8.69Zm0,46.33c3.42,0,5.38,2.11,5.37,5.23s-1.89,5.11-5.3,5.18a4.86,4.86,0,0,1-5.06-5.24A4.84,4.84,0,0,1,135.67,55Zm-5-10.21a4.86,4.86,0,0,1,5.07-5.23c3.43.08,5.29,2.14,5.29,5.18s-2,5.23-5.37,5.23A4.84,4.84,0,0,1,130.67,44.82ZM141,75.69c0,3.08-1.9,5.11-5.3,5.18a5.21,5.21,0,0,1-.06-10.41C139.1,70.47,141.06,72.57,141,75.69Zm-5.31,36a5.21,5.21,0,0,1,0-10.41c3.44,0,5.38,2.14,5.36,5.24S139.12,111.67,135.73,111.73ZM141,121.94c0,3.16-2,5.23-5.37,5.22a5.21,5.21,0,0,1,.08-10.41C139.2,116.83,141,118.91,141,121.94ZM135.61,96.3a4.84,4.84,0,0,1-4.93-5.36,5,5,0,0,1,5-5.09,5.3,5.3,0,0,1,5.4,5.28C140.82,94.46,138.83,96.37,135.61,96.3ZM104.77,41.16a3.64,3.64,0,1,1,0,7.28,3.64,3.64,0,0,1,0-7.28Zm-3.49-11.76a3.53,3.53,0,0,1,3.59-3.68,3.8,3.8,0,0,1,3.69,3.68A3.81,3.81,0,0,1,104.8,33,3.51,3.51,0,0,1,101.28,29.41Zm3.49,27.19a3.64,3.64,0,1,1,0,7.28,3.64,3.64,0,0,1,0-7.28Zm0,46.29a3.64,3.64,0,1,1,0,7.28,3.64,3.64,0,0,1,0-7.28Zm-3.49-11.74a3.53,3.53,0,0,1,3.58-3.69,3.64,3.64,0,1,1,0,7.28A3.52,3.52,0,0,1,101.28,91.14Zm3.49,73.47a3.64,3.64,0,1,1,0,7.28,3.64,3.64,0,0,1,0-7.28Zm-3.49-11.67a3.54,3.54,0,0,1,3.5-3.76,3.64,3.64,0,1,1,0,7.28A3.51,3.51,0,0,1,101.28,152.94Zm3.59,27.1a3.64,3.64,0,1,1-.06,7.28,3.64,3.64,0,0,1,.06-7.28Zm0,15.43a3.64,3.64,0,1,1-.08,7.28,3.64,3.64,0,0,1,.08-7.28ZM89.28,72.76a3.09,3.09,0,0,1,3,2.82,3.14,3.14,0,0,1-3,3,2.91,2.91,0,0,1,0-5.8ZM86.57,60.28a3,3,0,0,1,2.61-2.94,2.91,2.91,0,1,1,.09,5.8A3,3,0,0,1,86.57,60.28ZM89.29,88.2a3.09,3.09,0,0,1,3,2.84,3.14,3.14,0,0,1-3,3,2.91,2.91,0,0,1,0-5.8Zm-.13,92.59a2.91,2.91,0,1,1,.11,5.8,2.91,2.91,0,0,1-.11-5.8Zm-2.6-12.44a3,3,0,0,1,2.67-3,2.9,2.9,0,1,1,.07,5.8A3,3,0,0,1,86.57,168.35ZM73.82,12a2.09,2.09,0,0,1,2.1,1.9,2.08,2.08,0,0,1-2.13,2,2,2,0,0,1-1.87-2A2,2,0,0,1,73.82,12Zm0,46.29a2,2,0,1,1,0,3.9,2,2,0,0,1,0-3.9Zm0,50.19a2,2,0,0,1-1.93-1.9,2,2,0,0,1,1.83-2,2,2,0,1,1,.1,3.9Zm2.07,13.47a2.09,2.09,0,0,1-2.17,2,2,2,0,0,1-1.82-2,2,2,0,0,1,1.93-1.9A2.09,2.09,0,0,1,75.92,121.95Zm-2.2-75.2a2,2,0,0,1-1.79-2,2,2,0,0,1,2-1.87,2,2,0,1,1-.16,3.9Zm2.2,29a2.09,2.09,0,0,1-2.11,1.89,2,2,0,0,1,0-3.9A2.08,2.08,0,0,1,75.92,75.72ZM73.69,89.15A2.1,2.1,0,0,1,75.92,91a2.07,2.07,0,0,1-2,2,2,2,0,0,1-2-2A2.07,2.07,0,0,1,73.69,89.15Zm.12,127.35a2,2,0,0,1,0-3.9,2,2,0,1,1,0,3.9Zm-.05-15.43a2,2,0,0,1-1.83-2,2,2,0,0,1,1.92-1.9,2,2,0,1,1-.09,3.9Zm-1.83-17.38a2,2,0,0,1,1.87-2,2,2,0,1,1,0,3.9A2,2,0,0,1,71.92,183.69Zm1.95-13.49a1.95,1.95,0,0,1,0-3.9,2,2,0,1,1,0,3.9Zm-.13-15.43a2,2,0,0,1-1.81-2,2,2,0,0,1,1.94-1.88,2,2,0,1,1-.13,3.9Zm.12-15.43a2,2,0,0,1-1.93-1.89,2,2,0,0,1,1.82-2,2,2,0,1,1,.11,3.9Zm0-108a2,2,0,0,1-1.93-1.89,2,2,0,0,1,1.82-2,2.1,2.1,0,0,1,2.18,2A2.09,2.09,0,0,1,73.86,31.32ZM89.19,217.44a2.91,2.91,0,0,1,.07-5.8,3.11,3.11,0,0,1,3.07,2.92A3.19,3.19,0,0,1,89.19,217.44Zm0-15.43a2.91,2.91,0,0,1,0-5.8,2.91,2.91,0,1,1,0,5.8Zm0-46.29a2.91,2.91,0,0,1,.07-5.8,3.11,3.11,0,0,1,3.07,2.92A3.18,3.18,0,0,1,89.19,155.72Zm-2.62-18.46a3,3,0,0,1,2.78-2.76,3.06,3.06,0,0,1,3,3,3.18,3.18,0,0,1-3.1,2.78A3,3,0,0,1,86.57,137.26Zm2.62-12.4a2.91,2.91,0,0,1,.07-5.8A3.11,3.11,0,0,1,92.32,122,3.18,3.18,0,0,1,89.19,124.86Zm0-15.43a2.91,2.91,0,0,1,.1-5.8,3.08,3.08,0,0,1,3,2.88A3.16,3.16,0,0,1,89.23,109.43Zm0-61.73a3,3,0,0,1-2.66-2.89,3,3,0,0,1,2.76-2.91,3.08,3.08,0,0,1,3,2.87A3.16,3.16,0,0,1,89.23,47.7Zm0-15.43a2.91,2.91,0,0,1,0-5.8,3.13,3.13,0,0,1,3.1,2.89A3.17,3.17,0,0,1,89.21,32.27Zm0-15.43a3,3,0,0,1-2.63-2.92A3,3,0,0,1,89.25,11,3.11,3.11,0,0,1,92.32,14,3.18,3.18,0,0,1,89.2,16.84Zm15.64,201.35a3.64,3.64,0,0,1,0-7.28,3.64,3.64,0,1,1,0,7.28Zm0-77.16a3.64,3.64,0,0,1,0-7.28,3.64,3.64,0,1,1,0,7.28Zm0-15.43a3.64,3.64,0,0,1,0-7.28,3.64,3.64,0,1,1,0,7.28Zm0-46.29a3.64,3.64,0,0,1,0-7.28,3.64,3.64,0,1,1,0,7.28Zm0-61.73A3.51,3.51,0,0,1,101.28,14a3.53,3.53,0,0,1,3.56-3.7,3.81,3.81,0,0,1,3.73,3.64A3.81,3.81,0,0,1,104.83,17.58Zm15.55,201.34a4.1,4.1,0,0,1-4.38-4.35,4.17,4.17,0,0,1,4.36-4.39,4.37,4.37,0,0,1,0,8.74Zm0-15.43a4.1,4.1,0,0,1-4.34-4.39,4.16,4.16,0,0,1,4.4-4.35,4.37,4.37,0,1,1-.06,8.73Zm0-15.43a4.1,4.1,0,0,1-4.33-4.4,4.17,4.17,0,0,1,4.41-4.33,4.37,4.37,0,1,1-.08,8.73Zm0-15.43a4.1,4.1,0,0,1-4.37-4.36,4.16,4.16,0,0,1,4.37-4.37,4.37,4.37,0,1,1,0,8.73Zm0-15.43a4.1,4.1,0,0,1-4.32-4.4,4.17,4.17,0,0,1,4.41-4.33,4.37,4.37,0,1,1-.09,8.73Zm0-15.43a4.1,4.1,0,0,1-4.32-4.41,4.16,4.16,0,0,1,4.41-4.32,4.37,4.37,0,1,1-.09,8.73Zm0-15.43a4.1,4.1,0,0,1-4.34-4.38,4.16,4.16,0,0,1,4.39-4.35,4.37,4.37,0,1,1-.05,8.73Zm0-15.43a4.1,4.1,0,0,1-4.32-4.41,4.17,4.17,0,0,1,4.41-4.33,4.37,4.37,0,1,1-.09,8.73Zm0-15.43A4.1,4.1,0,0,1,116,91.1a4.16,4.16,0,0,1,4.37-4.37,4.37,4.37,0,1,1,0,8.73Zm0-15.43A4.1,4.1,0,0,1,116,75.66a4.16,4.16,0,0,1,4.38-4.37,4.37,4.37,0,1,1,0,8.73Zm0-15.43A4.1,4.1,0,0,1,116,60.22a4.15,4.15,0,0,1,4.39-4.35,4.37,4.37,0,1,1,0,8.73Zm.05-15.43a4.1,4.1,0,0,1-4.4-4.33,4.17,4.17,0,0,1,4.34-4.41,4.37,4.37,0,1,1,.07,8.73Zm0-15.43A4.1,4.1,0,0,1,116,29.38,4.16,4.16,0,0,1,120.37,25a4.37,4.37,0,1,1,0,8.73Zm0-15.43A4.1,4.1,0,0,1,116,14a4.16,4.16,0,0,1,4.36-4.38A4.27,4.27,0,0,1,124.73,14,4.27,4.27,0,0,1,120.38,18.3Zm15.26,5.86c3.32,0,5.39,2,5.4,5.19s-2,5.23-5.38,5.21a4.84,4.84,0,0,1-5-5.2A4.84,4.84,0,0,1,135.64,24.17Zm0,195.58a5.21,5.21,0,0,1,0-10.41c3.38,0,5.39,2,5.38,5.21S138.95,219.79,135.64,219.75Zm0-15.43a5.21,5.21,0,0,1,0-10.41c3.38,0,5.39,2.06,5.38,5.22S138.94,204.36,135.63,204.32Zm0-15.43a5.21,5.21,0,0,1,.07-10.41c3.42.07,5.29,2.13,5.3,5.18S139.07,188.89,135.67,188.89Zm0-15.39a5,5,0,0,1-5-5.18,4.85,4.85,0,0,1,5-5.26c3.3,0,5.1,2,5.38,5.15C141.32,170.9,138.56,173.67,135.71,173.5Zm5.38-20.62c-.28,3.19-2.08,5.12-5.38,5.15a4.85,4.85,0,0,1-5-5.26,5,5,0,0,1,5-5.18C138.56,147.41,141.32,150.17,141.09,152.88Zm0-15.44c-.27,3.17-2.05,5.12-5.37,5.15a4.85,4.85,0,0,1-5-5.26,5,5,0,0,1,5-5.19A5.3,5.3,0,0,1,141.09,137.44Z"/></g></g></svg>