<svg xmlns="http://www.w3.org/2000/svg" viewBox="0 0 191.87 228.71"><defs><style>.cls-1{fill:#262828;}</style></defs><title>b-detalle</title><g id="Layer_2" data-name="Layer 2"><g id="Layer_1-2" data-name="Layer 1"><path class="cls-1" d="M18.08,196.4c2.58,0,4.92-2.34,4.66-4.78.25-2.44-2.08-4.73-4.66-4.78a4.87,4.87,0,0,0-4.68,4.83A5,5,0,0,0,18.08,196.4Z"/><path class="cls-1" d="M18.09,181c2.58-.05,4.91-2.34,4.66-4.78.25-2.43-2.09-4.72-4.67-4.77a4.87,4.87,0,0,0-4.68,4.72A5,5,0,0,0,18.09,181Z"/><path class="cls-1" d="M18,165.54c2.59,0,5-2.32,4.72-4.72.27-2.48-2-4.74-4.61-4.83a4.86,4.86,0,0,0-4.74,4.77A5,5,0,0,0,18,165.54Z"/><path class="cls-1" d="M18.09,150.11c2.58-.05,4.92-2.34,4.66-4.78.25-2.43-2.09-4.73-4.67-4.77a4.87,4.87,0,0,0-4.68,4.72A5,5,0,0,0,18.09,150.11Z"/><path class="cls-1" d="M18.11,134.68c2.58-.07,4.9-2.35,4.63-4.81.24-2.42-2.11-4.72-4.7-4.75a4.87,4.87,0,0,0-4.65,4.74A5,5,0,0,0,18.11,134.68Z"/><path class="cls-1" d="M18.12,119.25a4.75,4.75,0,0,0,4.63-4.71c.28-2.58-2.16-4.84-4.71-4.86a4.87,4.87,0,0,0-4.64,4.75A5,5,0,0,0,18.12,119.25Z"/><path class="cls-1" d="M18,103.81c2.59,0,5-2.32,4.71-4.73.27-2.47-2-4.74-4.62-4.82A4.87,4.87,0,0,0,13.4,99,5,5,0,0,0,18,103.81Z"/><path class="cls-1" d="M18,88.38c2.59,0,5-2.32,4.71-4.73.27-2.47-2-4.74-4.62-4.82a4.86,4.86,0,0,0-4.73,4.78A5,5,0,0,0,18,88.38Z"/><path class="cls-1" d="M18,73c2.59,0,5-2.32,4.71-4.73.27-2.47-2-4.74-4.62-4.82a4.86,4.86,0,0,0-4.73,4.78A5,5,0,0,0,18,73Z"/><path class="cls-1" d="M18.05,57.52c2.59,0,4.94-2.33,4.69-4.75C23,50.32,20.68,48,18.11,48a4.87,4.87,0,0,0-4.71,4.8A5,5,0,0,0,18.05,57.52Z"/><path class="cls-1" d="M18.09,42.09C20.68,42,23,39.74,22.74,37.3c.25-2.43-2.1-4.72-4.68-4.76a4.87,4.87,0,0,0-4.66,4.73A5,5,0,0,0,18.09,42.09Z"/><path class="cls-1" d="M18,26.66c2.59,0,4.95-2.33,4.71-4.74a4.75,4.75,0,0,0-4.62-4.83,4.91,4.91,0,0,0-4.72,4.8A5,5,0,0,0,18,26.66Z"/><path class="cls-1" d="M18.08,1.67A4.87,4.87,0,0,0,13.4,6.5a5,5,0,0,0,4.68,4.72c2.58,0,4.92-2.34,4.66-4.77C23,4,20.66,1.72,18.08,1.67Z"/><path class="cls-1" d="M18,227.27c2.59,0,5-2.31,4.74-4.71.28-2.49-2-4.75-4.59-4.84a4.86,4.86,0,0,0-4.75,4.76A5,5,0,0,0,18,227.27Z"/><path class="cls-1" d="M18.07,211.84c2.59,0,4.93-2.34,4.68-4.77.26-2.44-2.07-4.73-4.66-4.79a4.87,4.87,0,0,0-4.69,4.82A5,5,0,0,0,18.07,211.84Z"/><path class="cls-1" d="M2.65,209.9a2.92,2.92,0,0,0,3-2.84,2.86,2.86,0,0,0-2.94-2.82A2.71,2.71,0,0,0,0,207,2.84,2.84,0,0,0,2.65,209.9Z"/><path class="cls-1" d="M0,222.39a2.85,2.85,0,0,0,2.54,2.94,2.83,2.83,0,1,0,.21-5.65A2.79,2.79,0,0,0,0,222.39Z"/><path class="cls-1" d="M5.58,6.55A2.78,2.78,0,1,0,0,6.35,2.86,2.86,0,0,0,2.55,9.29,2.81,2.81,0,0,0,5.58,6.55Z"/><path class="cls-1" d="M2.56,24.72A2.83,2.83,0,1,0,0,21.79,2.86,2.86,0,0,0,2.56,24.72Z"/><path class="cls-1" d="M2.76,34.5A2.78,2.78,0,0,0,0,37.21a2.85,2.85,0,0,0,2.54,2.95,2.83,2.83,0,1,0,.21-5.65Z"/><path class="cls-1" d="M2.65,55.59a2.92,2.92,0,0,0,3-2.84,2.86,2.86,0,0,0-2.94-2.82A2.71,2.71,0,0,0,0,52.74,2.84,2.84,0,0,0,2.65,55.59Z"/><path class="cls-1" d="M2.65,71a2.92,2.92,0,0,0,3-2.84,2.86,2.86,0,0,0-2.94-2.81A2.71,2.71,0,0,0,0,68.17,2.84,2.84,0,0,0,2.65,71Z"/><path class="cls-1" d="M0,83.53a2.61,2.61,0,0,0,2.56,2.89,2.8,2.8,0,0,0,3-2.74,2.93,2.93,0,0,0-2.87-2.89A2.74,2.74,0,0,0,0,83.53Z"/><path class="cls-1" d="M2.64,101.88a2.83,2.83,0,1,0,0-5.66A2.77,2.77,0,0,0,0,99,2.85,2.85,0,0,0,2.64,101.88Z"/><path class="cls-1" d="M2.74,111.66A2.78,2.78,0,0,0,0,114.39a2.86,2.86,0,0,0,2.57,2.92,2.83,2.83,0,1,0,.16-5.65Z"/><path class="cls-1" d="M2.77,127.09A2.79,2.79,0,0,0,0,129.79a2.85,2.85,0,0,0,2.53,2.95,2.83,2.83,0,1,0,.22-5.65Z"/><path class="cls-1" d="M0,145.24a2.86,2.86,0,0,0,2.55,2.93A2.83,2.83,0,1,0,0,145.24Z"/><path class="cls-1" d="M2.65,163.61a2.92,2.92,0,0,0,3-2.84A2.86,2.86,0,0,0,2.67,158,2.71,2.71,0,0,0,0,160.75,2.84,2.84,0,0,0,2.65,163.61Z"/><path class="cls-1" d="M5.58,176.28A2.78,2.78,0,1,0,0,176.1,2.86,2.86,0,0,0,2.56,179,2.81,2.81,0,0,0,5.58,176.28Z"/><path class="cls-1" d="M2.52,194.46a2.83,2.83,0,1,0,.26-5.65A2.78,2.78,0,0,0,0,191.5,2.84,2.84,0,0,0,2.52,194.46Z"/><path class="cls-1" d="M191.87,228.71q0-114.35,0-228.71H46.52a3.59,3.59,0,0,1-.79,1.54c-.91,1-1.84,1.91-2.81,2.82a2.74,2.74,0,0,1-4.15,0L36.12,1.68a3.81,3.81,0,0,0-5.24-.58,8.12,8.12,0,0,0-2.8,3.23c-1.79,3.92,2.21,8.67,6.2,8.24a2,2,0,0,0,1.21-.72l3.24-3.24a2.66,2.66,0,0,1,4-.26,33.59,33.59,0,0,1,3.24,3.24A4.59,4.59,0,0,1,45.74,17c-.88.94-1.79,1.84-2.73,2.73a2.78,2.78,0,0,1-4.32,0L36,17a3.83,3.83,0,0,0-5.26-.44,8.45,8.45,0,0,0-2.71,3.16c-1.79,3.91,2.19,8.68,6.18,8.25a2,2,0,0,0,1.21-.71L38.8,24a2.63,2.63,0,0,1,3.88-.19A33.34,33.34,0,0,1,45.92,27a4.6,4.6,0,0,1-.17,5.38c-.91,1-1.85,1.91-2.81,2.81a2.76,2.76,0,0,1-4.23-.09l-2.64-2.64A3.84,3.84,0,0,0,30.8,32a8.45,8.45,0,0,0-2.71,3.15c-1.8,3.91,2.17,8.69,6.16,8.27a2,2,0,0,0,1.21-.71l3.33-3.32a2.68,2.68,0,0,1,4-.13,38.09,38.09,0,0,1,3.15,3.15,4.61,4.61,0,0,1-.08,5.29c-.95,1-1.95,2-3,3a2.73,2.73,0,0,1-4.14-.15l-2.65-2.64a3.84,3.84,0,0,0-5.25-.47,8.47,8.47,0,0,0-2.72,3.14c-1.81,3.91,2.16,8.69,6.15,8.28a2,2,0,0,0,1.22-.7l3.33-3.32a2.67,2.67,0,0,1,4-.15,25.25,25.25,0,0,1,3.14,3.16,3.92,3.92,0,0,1,.35,4.54,10.48,10.48,0,0,1-4.86,4.48A1.91,1.91,0,0,1,39,66.27c-.89-1-1.92-1.95-2.88-2.92a3.83,3.83,0,0,0-5.25-.49A8.1,8.1,0,0,0,28,66.23c-1.61,3.92,2.4,8.52,6.34,8.07a1.92,1.92,0,0,0,1.1-.69l3.33-3.32a2.67,2.67,0,0,1,4-.17,37.65,37.65,0,0,1,3.16,3.15,4.61,4.61,0,0,1-.13,5.38c-.93,1-1.9,2-2.9,2.89a2.72,2.72,0,0,1-4.14-.11L36.08,78.8a3.83,3.83,0,0,0-5.25-.5A8.1,8.1,0,0,0,28,81.65c-1.62,3.91,2.38,8.53,6.32,8.08a1.9,1.9,0,0,0,1.11-.68l3.33-3.32a2.67,2.67,0,0,1,4-.18,25.55,25.55,0,0,1,3.14,3.16,3.92,3.92,0,0,1,.37,4.54,10.7,10.7,0,0,1-4.73,4.45,2,2,0,0,1-2.63-.63c-.86-1-1.86-1.89-2.79-2.83a3.83,3.83,0,0,0-5.25-.52A7.85,7.85,0,0,0,28,97.18c-1.5,3.89,2.44,8.42,6.35,8a1.87,1.87,0,0,0,1.11-.67l3.33-3.32a2.66,2.66,0,0,1,4-.2A33,33,0,0,1,46,104.21a4.6,4.6,0,0,1-.25,5.37c-.86.91-1.74,1.78-2.64,2.64-1.49,1.44-3,1.43-4.41,0l-2.56-2.56a3.83,3.83,0,0,0-5.25-.54A7.9,7.9,0,0,0,28,112.6c-1.51,3.87,2.41,8.42,6.33,8a1.86,1.86,0,0,0,1.11-.66l3.33-3.32a2.64,2.64,0,0,1,4-.21A33.75,33.75,0,0,1,46,119.64a4.61,4.61,0,0,1-.15,5.29q-1.39,1.5-2.9,2.9a2.73,2.73,0,0,1-4.15-.06l-2.64-2.64a3.82,3.82,0,0,0-5.25-.55A8.12,8.12,0,0,0,28,127.91c-1.65,3.86,2.3,8.55,6.27,8.11a1.87,1.87,0,0,0,1.12-.65l3.33-3.32a2.66,2.66,0,0,1,4-.23,33.54,33.54,0,0,1,3.24,3.24,4.59,4.59,0,0,1-.22,5.37c-.91,1-1.85,1.91-2.82,2.81a2.73,2.73,0,0,1-4.15,0L36,140.47a3.84,3.84,0,0,0-5.26-.41A8.45,8.45,0,0,0,28,143.33c-1.66,3.85,2.28,8.55,6.25,8.12a2,2,0,0,0,1.21-.72l3.24-3.24a2.66,2.66,0,0,1,4-.25,33.58,33.58,0,0,1,3.24,3.24,4.59,4.59,0,0,1-.2,5.38c-.88.94-1.79,1.84-2.73,2.73a2.77,2.77,0,0,1-4.32,0L36,155.91a3.83,3.83,0,0,0-5.26-.43,8.52,8.52,0,0,0-2.7,3.16c-1.79,3.92,2.21,8.67,6.19,8.25a2,2,0,0,0,1.21-.72l3.24-3.24a2.72,2.72,0,0,1,4.14-.11c1,.92,2,1.9,2.9,2.9a4.57,4.57,0,0,1,0,5.56c-.91,1-1.84,1.91-2.81,2.81a2.75,2.75,0,0,1-4.23-.1l-2.64-2.64a3.84,3.84,0,0,0-5.25-.45,8.45,8.45,0,0,0-2.71,3.15c-1.8,3.91,2.18,8.68,6.17,8.26a2,2,0,0,0,1.21-.71l3.33-3.32a2.68,2.68,0,0,1,4-.12,36.54,36.54,0,0,1,3.15,3.16,4.6,4.6,0,0,1-.17,5.38q-1.36,1.45-2.81,2.81a2.75,2.75,0,0,1-4.23-.08l-2.64-2.64a3.84,3.84,0,0,0-5.25-.46,8.44,8.44,0,0,0-2.71,3.15c-1.8,3.91,2.17,8.69,6.16,8.27a2,2,0,0,0,1.21-.7l3.33-3.32a2.67,2.67,0,0,1,4-.14,25.09,25.09,0,0,1,3.14,3.16,3.92,3.92,0,0,1,.34,4.54,10.69,10.69,0,0,1-4.75,4.43,1.94,1.94,0,0,1-2.54-.58c-.88-1-1.91-2-2.88-2.92a3.83,3.83,0,0,0-5.25-.48,8.44,8.44,0,0,0-2.72,3.14c-1.81,3.9,2.15,8.7,6.14,8.28a2,2,0,0,0,1.22-.69l3.33-3.32a2.67,2.67,0,0,1,4-.15,25.13,25.13,0,0,1,3.14,3.16,3.91,3.91,0,0,1,.35,4.54,10.47,10.47,0,0,1-4.85,4.48,1.91,1.91,0,0,1-2.43-.61c-.89-1-1.92-1.95-2.88-2.92a3.83,3.83,0,0,0-5.25-.49A8.13,8.13,0,0,0,28,220.54c-1.62,3.92,2.39,8.52,6.33,8.07a2,2,0,0,0,1.1-.68l3.33-3.33a2.67,2.67,0,0,1,4-.17,25.84,25.84,0,0,1,3.14,3.16,4.3,4.3,0,0,1,.64,1.12H191.87ZM56.18,220a5.3,5.3,0,0,1-5.39-5.29c.26-3.16,2-5.12,5.37-5.16a4.85,4.85,0,0,1,5,5.26A5,5,0,0,1,56.18,220Zm0-46.33c-3.42,0-5.38-2.11-5.37-5.23s1.89-5.11,5.3-5.18a5.21,5.21,0,0,1,.07,10.41Zm5,10.21a4.86,4.86,0,0,1-5.07,5.23c-3.43-.08-5.29-2.14-5.3-5.18s2-5.23,5.37-5.23A4.84,4.84,0,0,1,61.2,183.89ZM50.84,153c0-3.08,1.9-5.11,5.3-5.18a5.21,5.21,0,0,1,.06,10.41C52.78,158.25,50.82,156.14,50.84,153Zm5.31-36a5.21,5.21,0,0,1,0,10.41c-3.44,0-5.38-2.14-5.36-5.24S52.76,117,56.14,117Zm-5.31-10.21c0-3.16,2-5.23,5.38-5.22A5.21,5.21,0,0,1,56.13,112C52.68,111.88,50.84,109.8,50.84,106.77Zm5.43,25.64a4.84,4.84,0,0,1,4.93,5.36,5,5,0,0,1-5,5.09,5.3,5.3,0,0,1-5.4-5.28C51.05,134.25,53,132.35,56.26,132.41Zm30.85,55.13a3.64,3.64,0,1,1,0-7.28,3.64,3.64,0,0,1,0,7.28Zm3.49,11.76A3.53,3.53,0,0,1,87,203a3.64,3.64,0,1,1,.07-7.28A3.51,3.51,0,0,1,90.59,199.31Zm-3.49-27.19a3.64,3.64,0,1,1,0-7.28,3.64,3.64,0,0,1,0,7.28Zm0-46.29a3.64,3.64,0,1,1,0-7.28,3.64,3.64,0,0,1,0,7.28Zm3.49,11.74A3.53,3.53,0,0,1,87,141.26a3.64,3.64,0,1,1,0-7.28A3.52,3.52,0,0,1,90.59,137.57ZM87.1,64.1a3.64,3.64,0,1,1,0-7.28,3.64,3.64,0,0,1,0,7.28Zm3.49,11.67a3.54,3.54,0,0,1-3.5,3.76,3.64,3.64,0,1,1,0-7.28A3.51,3.51,0,0,1,90.59,75.77ZM87,48.67a3.64,3.64,0,1,1,.06-7.28A3.64,3.64,0,0,1,87,48.67Zm0-15.43a3.8,3.8,0,0,1-3.69-3.68A3.81,3.81,0,0,1,87.08,26,3.64,3.64,0,0,1,87,33.24Zm15.6,122.71a3.09,3.09,0,0,1-3-2.82,3.14,3.14,0,0,1,3-3,2.91,2.91,0,0,1,0,5.8Zm2.71,12.49a3,3,0,0,1-2.61,2.94,2.91,2.91,0,1,1-.09-5.8A3,3,0,0,1,105.31,168.43Zm-2.73-27.92a3.09,3.09,0,0,1-3-2.84,3.14,3.14,0,0,1,3-3,2.91,2.91,0,0,1,0,5.8Zm.13-92.59a3.15,3.15,0,0,1-3.15-2.83,3.15,3.15,0,0,1,3-3,2.91,2.91,0,0,1,.11,5.8Zm2.6,12.44a3,3,0,0,1-2.67,3,2.9,2.9,0,1,1-.07-5.8A3,3,0,0,1,105.3,60.36Zm12.75,156.36a2,2,0,1,1,0-3.9,2,2,0,0,1,0,3.9Zm0-46.29a2,2,0,1,1,0-3.9,2,2,0,0,1,0,3.9Zm0-50.19a2,2,0,0,1,1.93,1.9,2,2,0,0,1-1.83,2,2,2,0,1,1-.1-3.9ZM116,106.76a2.09,2.09,0,0,1,2.17-2,2,2,0,0,1,1.82,2,2,2,0,0,1-1.93,1.9A2.09,2.09,0,0,1,116,106.76Zm2.2,75.2a2,2,0,0,1,1.79,2,2,2,0,0,1-2,1.87,2,2,0,1,1,.16-3.9ZM116,153a2.09,2.09,0,0,1,2.11-1.89,2,2,0,0,1,0,3.9A2.08,2.08,0,0,1,116,153Zm2.23-13.43a2.1,2.1,0,0,1-2.23-1.89,2.07,2.07,0,0,1,2-2,2,2,0,0,1,2,2A2.07,2.07,0,0,1,118.19,139.57Zm-.12-127.35A2,2,0,0,1,120,14.16a2,2,0,0,1-1.87,2,2.08,2.08,0,0,1-2.12-2A2.09,2.09,0,0,1,118.07,12.22Zm.05,15.43a2,2,0,0,1,1.83,2,2,2,0,0,1-1.92,1.9,2,2,0,1,1,.09-3.9ZM120,45a2,2,0,0,1-1.87,2,2,2,0,1,1,0-3.9A2,2,0,0,1,120,45ZM118,58.51a1.95,1.95,0,0,1,0,3.9,2,2,0,1,1,0-3.9Zm.13,15.43a2,2,0,0,1,1.81,2A2,2,0,0,1,118,77.84a2,2,0,1,1,.13-3.9ZM118,89.38a2,2,0,0,1,1.93,1.89,2,2,0,0,1-1.82,2,2,2,0,1,1-.11-3.9Zm0,108a2,2,0,0,1,1.93,1.89,2,2,0,0,1-1.82,2,2,2,0,1,1-.11-3.9ZM102.69,11.27a3,3,0,0,1,2.62,2.94,3,3,0,0,1-2.69,2.86,3.11,3.11,0,0,1-3.07-2.92A3.19,3.19,0,0,1,102.69,11.27Zm0,15.43a2.91,2.91,0,0,1,0,5.8,3.14,3.14,0,0,1-3.11-2.88A3.16,3.16,0,0,1,102.65,26.7Zm0,46.29a2.91,2.91,0,0,1-.07,5.8,3.11,3.11,0,0,1-3.07-2.92A3.18,3.18,0,0,1,102.69,73Zm2.62,18.46a3,3,0,0,1-2.78,2.76,3.06,3.06,0,0,1-3-3,3.18,3.18,0,0,1,3.1-2.78A3,3,0,0,1,105.3,91.45Zm-2.62,12.4a2.91,2.91,0,0,1-.07,5.8,3.11,3.11,0,0,1-3.07-2.92A3.18,3.18,0,0,1,102.69,103.86Zm0,15.43a2.91,2.91,0,0,1-.1,5.8,3.08,3.08,0,0,1-3-2.88A3.16,3.16,0,0,1,102.65,119.29Zm0,61.73a3,3,0,0,1,2.66,2.89,3,3,0,0,1-2.76,2.91,3.08,3.08,0,0,1-3-2.87A3.16,3.16,0,0,1,102.64,181Zm0,15.43a2.91,2.91,0,0,1,0,5.8,3.13,3.13,0,0,1-3.1-2.89A3.17,3.17,0,0,1,102.66,196.44Zm0,15.43a2.91,2.91,0,0,1-.05,5.8,3.11,3.11,0,0,1-3.08-2.91A3.18,3.18,0,0,1,102.68,211.88ZM87,10.53a3.52,3.52,0,0,1,3.56,3.56A3.53,3.53,0,0,1,87,17.81a3.81,3.81,0,0,1-3.74-3.63A3.81,3.81,0,0,1,87,10.53Zm0,77.16A3.64,3.64,0,0,1,87,95a3.64,3.64,0,1,1,0-7.28Zm0,15.43a3.64,3.64,0,0,1,0,7.28,3.64,3.64,0,1,1,0-7.28Zm0,46.29a3.64,3.64,0,0,1,0,7.28,3.64,3.64,0,1,1,0-7.28Zm0,61.73a3.64,3.64,0,0,1,0,7.28,3.64,3.64,0,1,1,0-7.28ZM71.5,9.8a4.1,4.1,0,0,1,4.38,4.35,4.17,4.17,0,0,1-4.36,4.39,4.28,4.28,0,0,1-4.38-4.41A4.27,4.27,0,0,1,71.5,9.8Zm0,15.43a4.1,4.1,0,0,1,4.34,4.39A4.16,4.16,0,0,1,71.48,34a4.37,4.37,0,1,1,.06-8.73Zm0,15.43a4.1,4.1,0,0,1,4.33,4.4,4.17,4.17,0,0,1-4.41,4.33,4.37,4.37,0,1,1,.08-8.73Zm0,15.43a4.1,4.1,0,0,1,4.37,4.36,4.16,4.16,0,0,1-4.37,4.37,4.37,4.37,0,1,1,0-8.73Zm0,15.43a4.1,4.1,0,0,1,4.32,4.4,4.17,4.17,0,0,1-4.41,4.33,4.37,4.37,0,1,1,.09-8.73Zm0,15.43a4.1,4.1,0,0,1,4.32,4.41,4.16,4.16,0,0,1-4.41,4.32A4.37,4.37,0,1,1,71.56,87Zm0,15.43a4.1,4.1,0,0,1,4.34,4.38,4.16,4.16,0,0,1-4.39,4.35,4.37,4.37,0,1,1,.05-8.73Zm0,15.43a4.1,4.1,0,0,1,4.32,4.41,4.17,4.17,0,0,1-4.41,4.33,4.37,4.37,0,1,1,.09-8.73Zm0,15.43a4.1,4.1,0,0,1,4.37,4.36A4.16,4.16,0,0,1,71.51,142a4.37,4.37,0,1,1,0-8.73Zm0,15.43A4.1,4.1,0,0,1,75.88,153a4.16,4.16,0,0,1-4.37,4.37,4.37,4.37,0,1,1,0-8.73Zm0,15.43a4.1,4.1,0,0,1,4.35,4.38,4.15,4.15,0,0,1-4.39,4.35,4.37,4.37,0,1,1,0-8.73Zm-.05,15.43a4.1,4.1,0,0,1,4.4,4.33,4.17,4.17,0,0,1-4.34,4.41,4.37,4.37,0,1,1-.07-8.73Zm0,15.43a4.1,4.1,0,0,1,4.37,4.36,4.16,4.16,0,0,1-4.37,4.37,4.37,4.37,0,1,1,0-8.73Zm0,15.43a4.1,4.1,0,0,1,4.38,4.35,4.16,4.16,0,0,1-4.36,4.38,4.37,4.37,0,1,1,0-8.73Zm-15.26-5.86c-3.32,0-5.39-2-5.4-5.19s2-5.23,5.38-5.21a5.21,5.21,0,0,1,0,10.41ZM56.24,9a4.84,4.84,0,0,1,5,5.21,4.84,4.84,0,0,1-5,5.19c-3.37,0-5.39-2-5.38-5.21S52.93,8.93,56.24,9Zm0,15.43a4.84,4.84,0,0,1,5,5.22,4.84,4.84,0,0,1-5,5.19c-3.38,0-5.39-2.06-5.38-5.22S52.94,24.35,56.24,24.39Zm0,15.43a4.84,4.84,0,0,1,5,5.18,4.86,4.86,0,0,1-5.07,5.23c-3.42-.07-5.29-2.13-5.3-5.18S52.8,39.82,56.2,39.82Zm0,15.39a5,5,0,0,1,5,5.18,4.85,4.85,0,0,1-5,5.26c-3.3,0-5.1-2-5.38-5.15C50.55,57.81,53.32,55,56.17,55.22ZM50.79,75.83c.28-3.19,2.08-5.12,5.38-5.15a4.85,4.85,0,0,1,5,5.26,5,5,0,0,1-5,5.18C53.32,81.3,50.55,78.54,50.79,75.83Zm0,15.44c.27-3.17,2.05-5.12,5.38-5.15a4.85,4.85,0,0,1,5,5.26,5,5,0,0,1-5,5.19A5.3,5.3,0,0,1,50.79,91.27Z"/></g></g></svg>